<svg width="28" height="28" viewBox="0 0 28 28" fill="none" xmlns="http://www.w3.org/2000/svg">
<path d="M14 14C12.3958 14 11.0226 13.4288 9.88019 12.2865C8.73783 11.1441 8.16665 9.77083 8.16665 8.16666C8.16665 6.5625 8.73783 5.18923 9.88019 4.04687C11.0226 2.90451 12.3958 2.33333 14 2.33333C15.6041 2.33333 16.9774 2.90451 18.1198 4.04687C19.2621 5.18923 19.8333 6.5625 19.8333 8.16666C19.8333 9.77083 19.2621 11.1441 18.1198 12.2865C16.9774 13.4288 15.6041 14 14 14ZM2.33331 25.6667V21.5833C2.33331 20.7569 2.54599 19.9974 2.97133 19.3047C3.39668 18.612 3.96179 18.0833 4.66665 17.7187C6.17359 16.9653 7.70484 16.4002 9.2604 16.0234C10.816 15.6467 12.3958 15.4583 14 15.4583C15.6041 15.4583 17.184 15.6467 18.7396 16.0234C20.2951 16.4002 21.8264 16.9653 23.3333 17.7187C24.0382 18.0833 24.6033 18.612 25.0286 19.3047C25.454 19.9974 25.6666 20.7569 25.6666 21.5833V25.6667H2.33331ZM5.24998 22.75H22.75V21.5833C22.75 21.316 22.6831 21.0729 22.5495 20.8542C22.4158 20.6354 22.2396 20.4653 22.0208 20.3437C20.7083 19.6875 19.3837 19.1953 18.0469 18.8672C16.7101 18.5391 15.3611 18.375 14 18.375C12.6389 18.375 11.2899 18.5391 9.95311 18.8672C8.6163 19.1953 7.29165 19.6875 5.97915 20.3437C5.7604 20.4653 5.58418 20.6354 5.4505 20.8542C5.31682 21.0729 5.24998 21.316 5.24998 21.5833V22.75ZM14 11.0833C14.8021 11.0833 15.4887 10.7977 16.0599 10.2266C16.6311 9.65538 16.9166 8.96875 16.9166 8.16666C16.9166 7.36458 16.6311 6.67795 16.0599 6.10677C15.4887 5.53559 14.8021 5.25 14 5.25C13.1979 5.25 12.5113 5.53559 11.9401 6.10677C11.3689 6.67795 11.0833 7.36458 11.0833 8.16666C11.0833 8.96875 11.3689 9.65538 11.9401 10.2266C12.5113 10.7977 13.1979 11.0833 14 11.0833Z" fill="white"/>
</svg>