<svg width="24" height="24" viewBox="0 0 24 24" fill="none" xmlns="http://www.w3.org/2000/svg">
<path d="M20.4444 22L13.4444 15C12.8889 15.4444 12.25 15.7963 11.5278 16.0556C10.8056 16.3148 10.037 16.4444 9.22222 16.4444C7.2037 16.4444 5.49537 15.7454 4.09722 14.3472C2.69907 12.9491 2 11.2407 2 9.22222C2 7.2037 2.69907 5.49537 4.09722 4.09722C5.49537 2.69907 7.2037 2 9.22222 2C11.2407 2 12.9491 2.69907 14.3472 4.09722C15.7454 5.49537 16.4444 7.2037 16.4444 9.22222C16.4444 10.037 16.3148 10.8056 16.0556 11.5278C15.7963 12.25 15.4444 12.8889 15 13.4444L22 20.4444L20.4444 22ZM9.22222 14.2222C10.6111 14.2222 11.7917 13.7361 12.7639 12.7639C13.7361 11.7917 14.2222 10.6111 14.2222 9.22222C14.2222 7.83333 13.7361 6.65278 12.7639 5.68056C11.7917 4.70833 10.6111 4.22222 9.22222 4.22222C7.83333 4.22222 6.65278 4.70833 5.68056 5.68056C4.70833 6.65278 4.22222 7.83333 4.22222 9.22222C4.22222 10.6111 4.70833 11.7917 5.68056 12.7639C6.65278 13.7361 7.83333 14.2222 9.22222 14.2222Z" fill="white"/>
</svg>